<?xml version="1.0" encoding="UTF-8"?>
<svg xmlns="http://www.w3.org/2000/svg" version="1.1" viewBox="0 0 100 100">
  <defs>
    <style>
      .cls-1 {
        fill: #fff;
      }

      .cls-2 {
        fill-rule: evenodd;
      }

      .cls-2, .cls-3 {
        fill: #171427;
      }

      .cls-4 {
        fill: #747474;
      }
    </style>
  </defs>
  <!-- Generator: Adobe Illustrator 28.7.1, SVG Export Plug-In . SVG Version: 1.2.0 Build 142)  -->
  <g>
    <g id="Isolation_Mode">
      <circle class="cls-1" cx="50.5" cy="50.5" r="49.9"/>
    </g>
    <g id="Layer_1">
      <g id="Logo">
        <path class="cls-4" d="M50,.2c27.5,0,49.8,22.3,49.8,49.8s-22.3,49.8-49.8,49.8S.2,77.5.2,50,22.5.2,50,.2M50,0C22.4,0,0,22.4,0,50s22.4,50,50,50,50-22.4,50-50S77.6,0,50,0Z"/>
      </g>
      <g id="Layer_1-2" data-name="Layer_1">
        <polygon class="cls-2" points="34.3 33.1 65.7 33.1 65.7 35.3 34.3 35.3 34.3 33.1"/>
        <polygon class="cls-2" points="55.2 24.3 65.7 24.3 65.7 26.5 55.2 26.5 55.2 24.3"/>
        <polygon class="cls-2" points="55.2 20 65.7 20 65.7 22.2 55.2 22.2 55.2 20"/>
        <polygon class="cls-2" points="55.2 46.2 65.7 46.2 65.7 48.4 55.2 48.4 55.2 46.2"/>
        <polygon class="cls-2" points="55.2 41.8 65.7 41.8 65.7 44 55.2 44 55.2 41.8"/>
        <polyline class="cls-2" points="55.2 37.4 65.7 37.4 65.7 39.6 55.2 39.6 55.2 37.4"/>
        <polygon class="cls-2" points="55.2 28.7 65.7 28.7 65.7 30.9 55.2 30.9 55.2 28.7"/>
        <polygon class="cls-2" points="34.3 28.7 44.8 28.7 44.8 30.9 34.3 30.9 34.3 28.7"/>
        <polygon class="cls-2" points="34.3 24.3 44.8 24.3 44.8 26.5 34.3 26.5 34.3 24.3"/>
        <polygon class="cls-2" points="34.3 20 44.8 20 44.8 22.2 34.3 22.2 34.3 20"/>
        <polygon class="cls-2" points="34.3 46.2 44.8 46.2 44.8 48.4 34.3 48.4 34.3 46.2"/>
        <polygon class="cls-2" points="34.3 37.4 44.8 37.4 44.8 39.6 34.3 39.6 34.3 37.4"/>
        <polygon class="cls-2" points="34.3 41.8 44.8 41.8 44.8 44 34.3 44 34.3 41.8"/>
        <path class="cls-3" d="M13.3,67.3h1.8v3.8h4.9v-3.8h1.8v9.5h-1.8v-3.9h-4.9v3.9h-1.8v-9.5Z"/>
        <path class="cls-3" d="M24,72.1c0-2.7,2.1-4.9,4.8-4.9,0,0,.1,0,.2,0,2.7,0,4.9,2.2,4.9,4.9s-2.2,4.9-4.9,4.9h0c-2.7.1-4.9-2-5-4.6,0-.1,0-.2,0-.3ZM32.1,72.1c0-1.7-1.5-3.1-3.2-3-1.7,0-3.1,1.5-3,3.2,0,1.7,1.4,3,3.1,3,1.7,0,3.1-1.3,3.1-3,0,0,0-.1,0-.2h0Z"/>
        <path class="cls-3" d="M35.7,72.1c0-2.7,2-4.9,4.7-4.9.1,0,.2,0,.3,0,2.1-.2,4,1.2,4.5,3.2h-2c-.5-1-1.5-1.6-2.6-1.4-1.8,0-3.2,1.4-3.2,3.2s1.4,3.2,3.2,3.2c1.3.1,2.5-.7,2.8-2h-3v-1.5h5c0,3.2-2,5.2-4.8,5.2-2.6.1-4.9-1.9-5-4.6,0-.1,0-.2,0-.3Z"/>
        <path class="cls-3" d="M58.5,67.3h4.9c1.7-.1,3.1,1.1,3.3,2.7,0,0,0,.2,0,.3,0,1.2-.7,2.3-1.8,2.8l2.1,3.7h-2l-1.8-3.4h-2.9v3.4h-1.8v-9.5ZM63.3,71.9c.8,0,1.6-.5,1.7-1.3s-.5-1.6-1.3-1.7c-.1,0-.2,0-.3,0h-3v3h3Z"/>
        <path class="cls-3" d="M71.6,68.9h-3.3v-1.6h8.5v1.6h-3.4v7.9h-1.8v-7.9Z"/>
        <path class="cls-3" d="M78.6,67.3h1.8v3.8h4.9v-3.8h1.8v9.5h-1.8v-3.9h-4.9v3.9h-1.8v-9.5Z"/>
        <path class="cls-3" d="M52.8,67.3h-2.3l-4.1,9.5h1.9l.8-1.9h5l.8,1.9h1.9l-4-9.5ZM49.8,73.3l1.7-4h.2l1.7,4h-3.7Z"/>
      </g>
    </g>
  </g>
</svg>